<svg width="24" height="24" viewBox="0 0 24 24" fill="none" xmlns="http://www.w3.org/2000/svg">
<g id="source_notes">
<mask id="mask0_3_54" style="mask-type:alpha" maskUnits="userSpaceOnUse" x="0" y="0" width="24" height="24">
<rect id="Bounding box" width="24" height="24" fill="#D9D9D9"/>
</mask>
<g mask="url(#mask0_3_54)">
<path id="source_notes_2" d="M7 9H17V7H7V9ZM7 13H11.75C12.0833 12.6 12.4458 12.2292 12.8375 11.8875C13.2292 11.5458 13.6583 11.25 14.125 11H7V13ZM7 17H10.05C10.0833 16.65 10.1458 16.3083 10.2375 15.975C10.3292 15.6417 10.4417 15.3167 10.575 15H7V17ZM5 21C4.45 21 3.97917 20.8042 3.5875 20.4125C3.19583 20.0208 3 19.55 3 19V5C3 4.45 3.19583 3.97917 3.5875 3.5875C3.97917 3.19583 4.45 3 5 3H19C19.55 3 20.0208 3.19583 20.4125 3.5875C20.8042 3.97917 21 4.45 21 5V10.575C20.6833 10.4417 20.3583 10.3292 20.025 10.2375C19.6917 10.1458 19.35 10.0833 19 10.05V5H5V19H10.05C10.0833 19.35 10.1458 19.6917 10.2375 20.025C10.3292 20.3583 10.4417 20.6833 10.575 21H5ZM18 23C16.7833 23 15.7208 22.6208 14.8125 21.8625C13.9042 21.1042 13.3333 20.15 13.1 19H14.65C14.8667 19.7333 15.2792 20.3333 15.8875 20.8C16.4958 21.2667 17.2 21.5 18 21.5C18.9667 21.5 19.7917 21.1583 20.475 20.475C21.1583 19.7917 21.5 18.9667 21.5 18C21.5 17.0333 21.1583 16.2083 20.475 15.525C19.7917 14.8417 18.9667 14.5 18 14.5C17.5167 14.5 17.0667 14.5875 16.65 14.7625C16.2333 14.9375 15.8667 15.1833 15.55 15.5H17V17H13V13H14.5V14.425C14.95 13.9917 15.475 13.6458 16.075 13.3875C16.675 13.1292 17.3167 13 18 13C19.3833 13 20.5625 13.4875 21.5375 14.4625C22.5125 15.4375 23 16.6167 23 18C23 19.3833 22.5125 20.5625 21.5375 21.5375C20.5625 22.5125 19.3833 23 18 23Z" fill="#1C1B1F"/>
</g>
</g>
</svg>
